<svg id="Layer_1" data-name="Layer 1" xmlns="http://www.w3.org/2000/svg" viewBox="0 0 600 50.07"><defs><style>.cls-1{fill:#5a0001;}</style></defs><path class="cls-1" d="M38.74,49.49c-1.49,0-4.83-.52-6.87-.65-1.09,0-2,.45-2.8.45S27.92,49,26.83,49c-1.84,0-3.2.46-4.63.46-.55,0-1.09-.07-1.91-.13-3.88-.07-5,0-6-.13a10.67,10.67,0,0,0-1.57-.2,14.85,14.85,0,0,0-2.31.26H7.69c-.47,0-3,.33-4.9.33a10.49,10.49,0,0,1-1.56-.13C.61,49.42,0,49.23,0,48.38a.94.94,0,0,1,.75-.85c.68-.13,3.2.13,4.22-.84a2.9,2.9,0,0,0,1.16-2.16C6.2,43,6.26,41,6.26,40.3c0-1-.2-1.7-.2-5.09,0-.91-.14-7.17-.14-10.23s.28-8.93.28-10.63c0-.26-.41-1.24-.41-1.56a5.61,5.61,0,0,1-.07-1c0-1.5.34-2.41.34-3.78a19.3,19.3,0,0,1-.14-2.08c0-1.31-1.36-2-2.65-2.68C2.18,2.68.41,3,.41,1.44.41.6,1.77.4,2.86.4H9.53c1.57,0,3.61.2,4.9.2C15.93.6,20.15.33,22,.33c2.39,0,2.32.27,4.84.27s4.7-.14,9.73-.14c1.5,0,3.2-.26,4.16-.26.68,0,3,.13,3,1.83,0,2.74,2,9.91,2,11.41,0,1-.14,1.5-1.09,1.5-.75,0-1.57-.91-2.59-2.54A26.71,26.71,0,0,0,36.7,6.27a10.45,10.45,0,0,0-5.65-2.22c-1.36-.19-.68-.39-2.79-.52-1.3-.13-1.84-1-2.86-1-1.23,0-2.39.65-3,.65-4.15.13-4.29-.13-5.72,1.7-.61.72-.68,4.82-.68,6.19,0,1.17-.68,1.31-.68,1.83a11,11,0,0,1,.48,3.13v5.34c0,.85,1.36,1.44,2.79,1.57,1.16.19.68.26,1.7.26,1.43,0,2.38-.39,3.54-.39s1.09.13,3.61.13a8.72,8.72,0,0,0,3.81-1.11,13.83,13.83,0,0,0,4.29-3.33c.55-.65.82-1.76,1.71-1.76.47,0,.88.33.88,1.5-.07,1.7-.41,5-.41,6s.75,4.56.82,6.32c0,1.05-.61,1.57-1.09,1.57-1.09,0-2.45-2.74-3.27-3.52A9.34,9.34,0,0,0,28.67,26c-2.11,0-1.84-.13-3.82-.13-1,0-1.5.26-3.33.26-2.11,0-3.48-.13-4.43-.13-1.29,0-1.29.91-1.29,1.69,0,2-.34,8.08-.34,9.91,0,.65.41,1.17.41,1.76,0,1-.07,2-.07,2.93a4.39,4.39,0,0,0,.47,2.42c1.09,1.69,3.07,1.69,5,1.69,1.64,0,3.54-.33,5-.33s3.34-.45,4.29-.45a19.63,19.63,0,0,0,5.31-1.37c1.5-.59,4.09-1.7,5.59-3.59a39.33,39.33,0,0,0,3.67-4.3c.55-.78,1.91-2.41,2.32-2.41s1.16.26,1.16,1c0,1.18-1.16,4.11-2.59,9.06-.75,2.81-1.23,5.81-2.86,5.81C41.94,49.82,40.45,49.49,38.74,49.49Z" transform="translate(0 -0.2)"/><path class="cls-1" d="M87.91,29.54c-1.7,1-2.18.91-4.15,1.24.95.33,2.86,2.28,3.61,2.67,1.56.72,2,2.15,3.47,3.65s1.7,3,2.45,4.18l.2.26a13.83,13.83,0,0,0,3.14,3.78,7.76,7.76,0,0,0,4.15,2c1,0,1.23.52,1.23,1.11,0,.84-2.46,1.17-4.84,1.17a29.48,29.48,0,0,1-5.11-.46c-1.63-.39-4.69-1.17-6-2.86a33.25,33.25,0,0,1-2.59-4.18c-.74-1.24-.47-2.28-1.08-2.47s-1-3.2-2.73-5.35a4.92,4.92,0,0,0-2.59-1.83c-.81-.13-3-.06-4.08-.13s-1.64.2-1.64,1.24c0,.33.07,1.24.07,2.48a19.59,19.59,0,0,1-.07,2c-.06.91-.13,2-.13,3,0,1.31.07,2.42.07,2.74a4.08,4.08,0,0,0,1.77,3.33c.81.39,2.11.19,2.11,1.3s-1,1.24-2.11,1.24-2.32-.39-3.2-.39-2.32-.13-3.2-.13c-.48,0-1.57.26-2.18.26-.82,0-4.84.13-5.65.13-.55,0-1-.2-1-.85s.89-1,1.3-1c1.63,0,2.11-.78,2.86-2,.61-1,.61-3,.61-4.57,0-1-.14-1.3-.14-2.28a16.17,16.17,0,0,1,.14-2.28c0-.65-.14-1.56-.14-2,0-.65.07-1.3.07-2.22a12.72,12.72,0,0,0-.07-1.56c0-.59.41-1,.41-1.63s-.34-1.24-.34-2.09c0-.65.21-1.5.21-2.21a3.08,3.08,0,0,0-.14-.85c-.14-.59-.07-1-.27-2,0-.59.27-1.44.27-1.89,0-.65-.2-2.28-.2-2.87,0-2.67-.14-3.26-1-5-.48-1-1.16-1.63-3.21-1.63-.2,0-.47-.32-.47-.71a1.45,1.45,0,0,1,.2-.65c.21-.26,2.59-.26,3.61-.26h3.2c.41,0,5.24.19,5.45.19S72.86,9,73.41,9c.81,0,4.9-.13,7-.13,3.2.06,6.4.13,7.76.65a17.57,17.57,0,0,1,2.93,1.3c2.66,1.11,2.79,2.15,4.29,4.63a20.18,20.18,0,0,1,.89,4.82c0,2-.62,3.39-3.89,6.65C91,28.37,89.89,28.37,87.91,29.54Zm-1.09-10.3a9.78,9.78,0,0,0-.95-4.17A4.42,4.42,0,0,0,83,12.2c-.61-.13-.89-1-3.41-1-.47,0-1.22-.13-1.9-.13s-1.3.26-2.18.26c-1.84,0-3.2.06-3.61,1.56l-.2.52a10.78,10.78,0,0,0-.21,3c0,.33.07,1.5.07,2V26c0,.59-.07,1.24-.07,1.83s.07,1.43.48,1.69c.13.13.34.13.68.13.82,0,1.63-.19,2.86-.26a21.92,21.92,0,0,0,3.61-.13c1.43-.26,3.2-1.89,4.83-3.39A9.94,9.94,0,0,0,86.82,19.24Z" transform="translate(0 -0.2)"/><path class="cls-1" d="M120.12,8.81h.28c.74,0,3-.13,4.29-.13.4,0,1.08.13,1.22.13.34,0,.41-.13,1-.13.28,0,.41.33.41.65s-.13.72-.41.78a13.64,13.64,0,0,0-3,.79c-.41.26-.48,1.3-.75,2.54-.07.32-.14,2.54-.27,3.78s.2,2.15.2,3.32c0,.46-.41.85-.41,1.5A19.32,19.32,0,0,1,123,25.5c0,.91-.2,1.63-.2,2.15,0,.85.48,1.89.48,3,0,1.76-.62,2.87-.62,3.91a39.28,39.28,0,0,1,.41,4.11,59.18,59.18,0,0,0,.21,7.76c.06.58.54,1,1.43,1.3a12.35,12.35,0,0,1,2.24.46.38.38,0,0,1,.21.39,1.23,1.23,0,0,1-.21.65,5.24,5.24,0,0,1-2.59.46c-1.08,0-2.45-.07-3.06-.07-.34,0-3-.07-7.08-.07-.27,0-1.77.14-2.93.14a3,3,0,0,1-1.43-.2c-.13-.13-.13-.46-.13-.72s0-.45.13-.52a16.36,16.36,0,0,1,1.64-.26,2.87,2.87,0,0,0,1.56-.85c.48-.45.61-1.69.75-2.15a28.89,28.89,0,0,0,.14-4.3c0-4.24-.14-5.28-.14-10.89,0-.91.48-1.43.48-1.95a13.67,13.67,0,0,1-.55-3.85c-.07-2.22-.13-3.72-.13-5.15a48.12,48.12,0,0,0-.21-5.8c-.34-1.11-.34-1.89-.68-2.09a3.65,3.65,0,0,0-1.7-.46,5.65,5.65,0,0,1-1.36-.19.78.78,0,0,1-.34-.65.9.9,0,0,1,.47-.78,3.56,3.56,0,0,1,1.5-.14c1.16,0,2.52.07,2.79.07Z" transform="translate(0 -0.2)"/><path class="cls-1" d="M176.85,22.43c0,.92.06,1.83.06,2.42,0,1-.27,1.63-.27,2.47,0,2.94.07,3.52.07,4.44,0,2.34.14,4.89.14,7.17,0,2,.34,8,.34,9.52,0,.65-.34,1.82-1.37,1.82a4.34,4.34,0,0,1-2.79-1c-.95-.52-3.74-3.72-4.36-4.43-.81-1.11-1.63-1.24-2.58-2.42-1.84-2.21-4.09-4.62-5.65-6.52-1.91-2.34-4.43-4.36-5.25-5.8A10.83,10.83,0,0,0,152.88,27c-.62-.72-2-2.67-3.07-3.72-.4-.52-2.72-2.93-5.78-6.19,0,1.43.06,3,.06,4.63v5.47c0,2.68.21,2.35.21,4.18,0,.58-.68,1-.68,2s.54.84.54,2c0,.91.27,2.67.27,3.58,0,2,.14,1.31.69,2.74a6.79,6.79,0,0,0,1.56,2.67,9.21,9.21,0,0,0,2.59,2.35c.61.33,1.91.33,1.91,1.63,0,.65-.48.78-1.3.78-.54,0-1.29-.06-3.95-.06a11.49,11.49,0,0,1-2.93-.26,8.07,8.07,0,0,0-1.15-.13c-1,0-1.84.32-2.93.39s-1.84.32-2.52.32a1.53,1.53,0,0,1-.82-.19c-.34-.2-.47-.39-.47-.65s.27-.59.68-.79a14,14,0,0,0,2.92-2,9.74,9.74,0,0,0,1.64-3.13,9.82,9.82,0,0,0,.61-3.45c0-.72-.13-1.37-.13-1.83V32.74c0-.79.06-2.09.06-3.07a20.54,20.54,0,0,1,.34-3.26c0-1.3-.4-2.21-.4-3.32V20.54c0-1.1,0-2.54-.07-4.1a13,13,0,0,1-.14-1.89,3.47,3.47,0,0,0-1.09-2.42c-1.84-1.89-3.47-1.76-3.47-2.28s.27-1,1-1h.82c.61,0,1.22-.07,1.84-.07a3.74,3.74,0,0,1,.88.07,12.16,12.16,0,0,1,2.38-.2c1.78,0,3.68.2,5,.2.69,0,3.41,3.32,3.95,4.23A9.55,9.55,0,0,0,155,16.18c.61.45.27,1.5,1.36,2.41s2.86,2.87,3.68,3.84,2.24,2.22,2.45,3,1.5,1.83,2.18,2.68.61,1.3,1.15,1.82c.69.52,3.61,2.94,3.89,3.78a9.66,9.66,0,0,0,2.17,2.48c.89.91.82,1.43,1.64,1.43.34,0,.41-.19.41-.52s-.07-.71-.07-1.11c-.07-2.15-.14-2.34-.14-4.23,0-1.57.14-3,.14-4.44s-.07-1.76-.07-2c0-.78.07-1.24.07-2.47-.07-1-.27-1.11-.27-1.7,0-.85-.07-1.37-.07-2.15,0-2-.14-1.3-.61-2.8a8.33,8.33,0,0,0-1.64-2.61,9.23,9.23,0,0,0-2.59-2.35c-.61-.32-1.9-.32-1.9-1.63,0-.65.47-.78,1.29-.78.55,0,1.3.07,2,.07a27.08,27.08,0,0,1,5,.19,4.56,4.56,0,0,0,1.29.13c.95,0,1.7-.26,2.72-.32s1.77-.33,2.52-.33a2,2,0,0,1,.89.19.69.69,0,0,1,.48.59c0,.33-.35.65-.75.85a13.56,13.56,0,0,0-2.86,2,8.85,8.85,0,0,0-1.71,3.13,6.48,6.48,0,0,0-.54,2.74C177.05,19.18,176.85,21.85,176.85,22.43Z" transform="translate(0 -0.2)"/><path class="cls-1" d="M243.85,19.57a29.51,29.51,0,0,0,2.52-3,1.11,1.11,0,0,1,.82-.26c.61,0,1.22.26,1.22.71,0,.79-.61,6-.61,6.78,0,2,.48,3.46.48,5.15s-.07,2.35-1.43,2.35c-.75,0-1.77-3.32-3.27-4.37-1.29-.91-2.38-2-5-2-1.09,0-2.25-.52-3.81-.52-1,0-1.84.2-3.07.2-1.7,0-3.54.19-3.67.91a8.18,8.18,0,0,0-.28,2c0,1.3.34,8,.34,9.32,0,1.56-.06,5.28-.06,6.78a2.16,2.16,0,0,0,.74,1.95c.89,1.05,3.34,1.18,4,1.57s.75.78.75,1.56-1.63.91-3.13.91c-.95,0-1.84-.06-2.32-.06s-3-.13-3.47-.13c-1.7,0-3.47.13-5,.13-.34,0-2.45.2-4.29.2-1.36,0-2.52-.14-2.65-.46a2.69,2.69,0,0,1-.21-.91.94.94,0,0,1,.41-.79c.75-.78,3.54-.78,4.15-1.56,1.64-2.15.89-5.54,1.36-8.28.07-1.24.35-2.15.35-3.19s-.48-6.78-.48-7.31c0-2.6.2-7.1.2-9.71,0-.85-.13-1.5-.13-2.22a4.24,4.24,0,0,1,.2-1.3c-.07-1.83-.34-3.39-.34-5a16.35,16.35,0,0,0-.61-3.52c-.61-1.63-2.73-2.28-3.95-2.61-.82-.19-1-.58-1-1a1.45,1.45,0,0,1,.41-1C213.48.4,223,.2,224.72.2a34.87,34.87,0,0,1,4.9.33c.75.07,1.77.2,2.39.2,1.49,0,2.72-.53,4-.53s2,.26,3,.26,1.16,0,2.25-.06c1.77,0,2.92.2,4.08.2.34,0,6.33-.4,8.24-.4,1.36,0,2.25.4,2.25,2.09,0,3.06,1.09,9,1.09,10.76,0,1.3-.55,1.82-1.16,1.82s-1.64-1.37-2-2.47a15.72,15.72,0,0,0-4.63-5.94,9.71,9.71,0,0,0-6.34-2.34c-2.11,0-2.58-.59-4.08-.59-1.23,0-1.5-.39-2.79-.39-.89,0-1.5.45-2.32.45s-1.36-.19-2.18-.19c-2.93,0-3.4.91-3.4,3.32v8.61c0,.72-.14,2-.14,3.58s.14,2.81,1,2.94a19.16,19.16,0,0,0,2,.06c1.56,0,3.2-.13,4.9-.13s2.25-.06,3.27-.06A9.63,9.63,0,0,0,243.85,19.57Z" transform="translate(0 -0.2)"/><path class="cls-1" d="M280.63,46.75c.81,0,1.7-.13,2.31-.13,1.23,0,2.25-.39,3.07-.39a43.06,43.06,0,0,0,6-.72A9,9,0,0,0,296.36,43a20.89,20.89,0,0,0,2.45-3.26c.47-.65,1-1.69,1.7-1.69.27,0,.95.26.95.84a15,15,0,0,1-.68,2.48,25.28,25.28,0,0,0-1.29,6.32c-.14,1.31-.89,2.09-1.84,2.09s-2.25-.26-3.68-.26c-1.22,0-5.24-.46-6.94-.59-.89,0-1.64.39-2.32.39s-.95-.19-1.84-.19c-1.49,0-2.65.39-3.81.39-.95,0-3.95-.33-5.92-.33-1.09,0-1.16.2-5.52.2-1.22,0-2.79-.07-3.06-.52-.07-.13-.14-.2-.14-.33a.72.72,0,0,1,.68-.65,4,4,0,0,0,2.79-1.24,4,4,0,0,0,.62-2.28c0-3.06.07-6.45.07-6.72,0-.58.34-.91.34-1.3s-.34-.85-.34-1.43-.07-1.44-.07-1.83c0-1.89.34-3.58.34-5.34-.07-2.09-.14-3.13-.14-4.18a21.27,21.27,0,0,1,.14-2.28,17.27,17.27,0,0,0,.13-3c0-.91-.27-2-.27-2.93a8.92,8.92,0,0,0-.41-3.26,2.31,2.31,0,0,0-2.45-1.37c-.41,0-1.43-.33-1.43-.85s.14-.84.95-.84c.48,0,1.16-.07,1.84-.07a4.17,4.17,0,0,1,1,.07h1.43c.13,0,.34-.07.61-.07,1.36-.06,6.13-.13,6.54-.13.95.07,4.49.2,5.31.2s1.15.32,1.15,1-.34.85-1,.85c-.41,0-1.84,0-2.31.52a2.44,2.44,0,0,0-1.09,2.15,14,14,0,0,0-.21,2.68,9.05,9.05,0,0,0,.07,1.37v.58c0,1.11-.27,2-.27,3.39,0,.65.2,1.7.2,2.28a39.63,39.63,0,0,1-.88,4.89c0,.26.48.79.48,1,0,.72.4,1.17.4,2.15,0,2.48-.54,3.46-.54,4.44s.61,2.08.61,2.93-.2,1.37-.2,2.28,0,4.37.54,4.89A2.42,2.42,0,0,0,280.63,46.75Z" transform="translate(0 -0.2)"/><path class="cls-1" d="M340.48,49.49c-1.22,0-4-.46-5.72-.59-.88,0-1.63.39-2.31.39s-1-.19-1.84-.19c-1.5,0-2.66.39-3.81.39-1,0-1.84-.07-2.86-.13-1.91-.07-2.86,0-3.68-.13A6.63,6.63,0,0,0,319,49.1a10.66,10.66,0,0,0-2,.19h-2.79c-.34,0-2.45.26-4.09.26a7.47,7.47,0,0,1-1.22-.06c-.48-.07-1-.26-1-.91a.73.73,0,0,1,.61-.72c.54-.07,2.65.07,3.47-.72a2.15,2.15,0,0,0,1-1.76c.07-1.24.14-2.93.14-3.52,0-.85-.2-1.37-.2-4.17,0-.78-.14-5.93-.14-8.41s.27-7.37.27-8.8c0-.2-.34-1-.34-1.24v-.85c0-1.24.21-2,.21-3.19a12,12,0,0,1-.14-1.7c0-1-1.36-1.89-2.18-2.21s-2.31-.2-2.31-1.44c0-.71,1.15-.84,2-.84h6.06c1.29,0,2.93.13,4,.13s4.69-.2,6.19-.2c2,0,2,.2,4,.2,2.25,0,3.81-.13,8-.13,1.22,0,2.58-.13,3.33-.13s2.45,0,2.52,1.43c.21,4,1.36,7.43,1.36,8.67,0,.85-.13,1.24-1,1.24-.61,0-1.22-.78-2.11-2.15a19.08,19.08,0,0,0-4-4.57c-1.43-1-2.38-1.17-4.35-1.43-1.09-.13-.82-.13-2.52-.26-1.09-.07-1.57-.78-2.39-.78a22.84,22.84,0,0,0-2.52.52c-3.06,0-3.13,0-4.15,1.43-.48.59-.55,3.72-.55,4.83s-.61,1.1-.61,1.5a8.18,8.18,0,0,1,.41,2.6v4.18c0,.65.75,1,1.91,1.17.95.13.47.39,1.29.39,1.23,0,2-.26,2.93-.26h2.93a6.66,6.66,0,0,0,3.13-.72,11.31,11.31,0,0,0,3.61-2.74c.47-.58.61-1.5,1.43-1.5.34,0,.68.33.68,1.24v.26c-.07,1.18-.34,3.92-.34,4.7s.61,3.84.68,5.28c0,.85-.55,1.24-.89,1.24-.95,0-2-2.22-2.72-2.87a7.28,7.28,0,0,0-4.56-2.09c-1.7,0-1.5-.13-3.13-.13-.82,0-1.23.13-2.73.13-1.77,0-2.24-.13-3-.13-1.09,0-1.23.72-1.23,1.44,0,1.56-.27,6.65-.27,8.15,0,.52.34,1,.34,1.43,0,.91-.07,1.76-.07,2.48a3.68,3.68,0,0,0,.34,1.82c1,1.44,2.25,1.44,4.09,1.44,1,0,2.52-.33,3.67-.33s2.79-.39,3.61-.39a15.69,15.69,0,0,0,4.36-.85,12.54,12.54,0,0,0,4.49-2.34,16.83,16.83,0,0,0,2.86-3.53l.14-.19c.41-.72,1.09-1.83,1.43-1.83s1,.26,1,.85c0,1-1.36,4.11-1.7,7.89-.2,2.48-.82,3.65-2.18,3.65C343.07,49.75,341.84,49.49,340.48,49.49Z" transform="translate(0 -0.2)"/><path class="cls-1" d="M385.77,8.74c1.22,0,3.27-.52,4.08-.52A2.28,2.28,0,0,1,392,10.05c.75,3.52,1.64,6.71,1.64,8,0,.85-.07,1.31-.89,1.31-.61,0-1.36-1.18-2.24-2.42a18.88,18.88,0,0,0-4-3.91c-1.36-1-4.63-1.24-5.79-1.3s-1.56,1.43-1.63,1.76-.14,2.54-.28,3.78v.33c0,.84.21,1.82.21,3,0,.46-.41.85-.41,1.5a20.28,20.28,0,0,1,.34,3.46c0,.91-.2,1.63-.2,2.15,0,.85.47,1.89.47,3,0,1.76-.61,2.87-.61,3.91a39.28,39.28,0,0,1,.41,4.11V43.3a23.88,23.88,0,0,0,.2,3.13c.07.58.55,1,1.43,1.3a12.3,12.3,0,0,1,2.25.46.38.38,0,0,1,.21.39,1.23,1.23,0,0,1-.21.65c-.14.19-.41.19-.82.32a16.24,16.24,0,0,1-1.84.14c-1.22,0-2.85-.07-3.47-.07-.27,0-2.45-.07-6.53-.07-.28,0-1.77.14-2.93.14a3,3,0,0,1-1.43-.2c-.14-.13-.14-.46-.14-.72s0-.45.14-.52a16,16,0,0,1,1.63-.26,2.9,2.9,0,0,0,1.57-.85,3.94,3.94,0,0,0,.75-2.15,31.09,31.09,0,0,0,.13-4.3c0-4.24-.13-5.28-.13-6.26V29.8c0-.91.47-1.43.47-1.95A14.28,14.28,0,0,1,369.7,24c-.07-2.22-.14-3.72-.14-5.15,0-3.33-.2-5.09-.2-5.8a3,3,0,0,1,.07-.33c0-.85-1.43-1-3-1s-4,.19-5.38,1.17-3.61,2.94-4.29,4.3-1.5,2.16-2.11,2.16-.88-.46-.88-1.31c0-1.24.88-4.43,1.63-7.95.34-1.44,1.23-1.83,1.84-1.83s2.86.52,4.08.52c4.16,0,2.18.14,4.43.14a3.56,3.56,0,0,1,1.5-.14c1.16,0,2.52.07,2.79.07h6.26c.68,0,2.66-.13,3.82-.13.34,0,.68.06.81.06Z" transform="translate(0 -0.2)"/><path class="cls-1" d="M425.06,11c-.54,0-.95.26-1.7.26s-1.16-.13-1.91-.13a3.52,3.52,0,0,0-.75.06c-.88.2-1.63.85-2.31.85-1.7,0-3,1.17-4.29,2-.89.46-1.64,2-2.93,3.52a13.15,13.15,0,0,0-2.52,7.5c0,.72-.61,2.15-.61,3.32a31.31,31.31,0,0,0,.48,5.09l.2.85c.61,2.6,1.36,5.6,4.15,7.82,1.64,1.3,3.07,3.32,6.13,4.3,1.09.46,3,.52,6,.59a33.84,33.84,0,0,0,5.25-.85,19.84,19.84,0,0,0,4.83-2.54c.75-.72,1.84-1.31,2.66-2A6.51,6.51,0,0,0,439,39.58a1.93,1.93,0,0,1,1.64-1.24A1.63,1.63,0,0,1,442,39.65a10.24,10.24,0,0,1-1.7,3.06,11.23,11.23,0,0,1-2.46,2.54,9.78,9.78,0,0,1-3.26,2.35,39.74,39.74,0,0,1-5.38,1.69,26.89,26.89,0,0,1-6.34.85c-2.24,0-8.58-.32-12.32-1.89-3.4-1.5-2.66-1.56-4.63-2.48a14,14,0,0,1-4.36-4.3c-1.9-2.87-2.11-4.69-2.93-7.24a15.24,15.24,0,0,1-.4-3.91c0-2.41.27-4.56.74-5.21.69-1.18,1-4,1.71-5.09a21.56,21.56,0,0,1,3.74-4.63c.82-.78,1.91-1.69,2.93-1.69.82,0,.61-.59.89-1.11s1.49-1.5,3.6-2.22a22.48,22.48,0,0,1,5.72-1.56c1.77-.13,5-.65,7.29-.65.68.06,1.36.13,2.11.13a11.42,11.42,0,0,1,4.15.85c.68.06,1.84.39,2.25.39s2.11-.59,2.66-.59,1.09.33,1.29,2.15.61,2.54.75,3.85,1,3.26,1,4.5c0,.52-.27.84-.95.84a2.48,2.48,0,0,1-2-1.69c-.34-.72-1.16-1.63-1.63-2.54a11.06,11.06,0,0,0-2.32-2.81,16,16,0,0,0-3.88-1.56C427.17,11.61,426.15,11,425.06,11Z" transform="translate(0 -0.2)"/><path class="cls-1" d="M458.29,8.81h.21c.75,0,3-.13,4.29-.13.41,0,.75.06.88.06.75.14,2.05-.06,2.59.27.2.13.34.32.34.84,0,.33-.48.52-.68.59-1.09.13-1.63-.2-2.66.78a3.24,3.24,0,0,0-1.15,2.48c.07,1.69.2,2.93.2,3.91a5.82,5.82,0,0,1-.07,1.17,12.72,12.72,0,0,0-.2,2.87c0,.07-.07.78-.07,2.15,0,1.05,0,3.46.27,3.72s.28.39,3.95.39c2.18,0,3.27-.06,4.9-.06a10.53,10.53,0,0,1,1.91.32c.61.07,1.23.2,1.64.2,1,0,2.24-.91,4.15-.91,1.36,0,2.65.52,4.15.52a3.43,3.43,0,0,0,1.36-.26,2.54,2.54,0,0,0,1.57-1.7,56.07,56.07,0,0,0,.34-7c0-1.5-.2-3.39-.2-4.76s-.14-2-1.64-3.26c-.61-.59-1.9-.19-2.52-.65a1.18,1.18,0,0,1-.2-.72,1.34,1.34,0,0,1,.2-.65A3.63,3.63,0,0,1,483,8.61c.41,0,.89.2,1.36.2s2.18-.2,3.34-.2a3.54,3.54,0,0,1,1,.07,7.66,7.66,0,0,0,1.5.06c2.38,0,6.67-.13,7.28-.13a4.87,4.87,0,0,1,1.71.27.86.86,0,0,1,.13.52,1,1,0,0,1-.2.65c-.07.13-.34.32-1.23.39a3.74,3.74,0,0,0-1.7.65,5.58,5.58,0,0,0-.89,2.48,8.24,8.24,0,0,0-.27,2.15c0,.59.27,2,.34,2.48,0,2.08-.54,3.13-.54,4.37,0,.26.07,1.56.13,3.26,0,.52-.13,1-.13,1.56a3,3,0,0,0,.27,1.24,1.82,1.82,0,0,1,.2,1c0,.65-.13,1.37-.13,2,0,2.28-.14,6.65-.14,7.17A13.56,13.56,0,0,0,495.4,42a8.67,8.67,0,0,1,.07,1.31c0,.84-.07,1.56-.07,2.08a2.52,2.52,0,0,0,1.91,2.41c1.43.2,1.84.33,2,.46s.07.26.07.52,0,.52-.07.52a5.23,5.23,0,0,1-1.7.26c-2.93,0-5.79-.06-8.78-.06a4.16,4.16,0,0,1-1,.06c-1.16,0-2.79-.13-3.48-.19-.34,0-.81.19-1.22.19a5.13,5.13,0,0,1-1.16-.32c-.13-.07-.2-.26-.2-.52a1.34,1.34,0,0,1,.2-.72c.07-.13.48-.13.95-.13a4.81,4.81,0,0,0,1.64-.2,2.91,2.91,0,0,0,.95-1,11.91,11.91,0,0,0,.75-3.06v-4c0-.39.27-.91.27-1.17a24.18,24.18,0,0,0-.2-2.42c0-.84-.21-5-.68-5.15a29.75,29.75,0,0,0-5.31-.45c-.34,0-1.43,0-1.91.06h-2c-1.5,0-2.52.26-4.36.26-2.73,0-4.56-.13-5.86-.13-.75,0-1.56-.06-2.52-.06a5.83,5.83,0,0,0-1.56.13,2.72,2.72,0,0,0-.28,1.56c0,1.5-.13,8-.13,9.26,0,.59.41,1.17.41,1.63,0,1.37,0,3.72,1.15,4a15,15,0,0,0,1.77.58c.89,0,1.57.46,1.57.85,0,1-.75,1-1.91,1-.47,0-5.24-.13-6.06-.13h-3.47c-.27,0-1.36.07-2.31.07a6.55,6.55,0,0,0-1.09-.13c-.41,0-.82.19-1.3.19a9,9,0,0,1-1.77-.32c-.13-.07-.2-.26-.2-.52a1.34,1.34,0,0,1,.2-.72c.21-.13,2.18-.26,2.8-.78A4.5,4.5,0,0,0,453,43.56l.28-4.44a4.25,4.25,0,0,0,.06-.84c0-.52-.06-1.05-.06-1.57,0-1.3.06-2.34.06-3.06,0-1.11-.2-4.44-.2-5.09,0-1.24.07-2.73.07-4.1l.54-1.89c0-.4-.54-.79-.54-1.18-.14-3.39-.21-4.76-.21-6.19a10.44,10.44,0,0,0-.27-2.74c-.34-.78,0-1-1.22-1.56a3.55,3.55,0,0,0-1.16-.4,5.13,5.13,0,0,1-1.16-.32c-.34,0-.48-.26-.48-.59a.7.7,0,0,1,.48-.71,15.19,15.19,0,0,1,2.18-.07Z" transform="translate(0 -0.2)"/><path class="cls-1" d="M539.05,49.49c-1.22,0-4-.46-5.71-.59-.89,0-1.64.39-2.32.39s-.95-.19-1.84-.19c-1.5,0-2.65.39-3.81.39-1,0-1.84-.07-2.86-.13-1.91-.07-2.86,0-3.68-.13a6.61,6.61,0,0,0-1.22-.13,10.76,10.76,0,0,0-2,.19h-2.79c-.34,0-2.45.26-4.09.26a7.47,7.47,0,0,1-1.22-.06c-.48-.07-1-.26-1-.91a.73.73,0,0,1,.61-.72c.54-.07,2.66.07,3.47-.72a2.19,2.19,0,0,0,1-1.76c.06-1.24.13-2.93.13-3.52,0-.85-.2-1.37-.2-4.17,0-.78-.14-5.93-.14-8.41s.27-7.37.27-8.8c0-.2-.34-1-.34-1.24v-.85c0-1.24.21-2,.21-3.19a12,12,0,0,1-.14-1.7c0-1-1.36-1.89-2.18-2.21s-2.31-.2-2.31-1.44c0-.71,1.16-.84,2-.84H515c1.29,0,2.93.13,4,.13s4.7-.2,6.19-.2c2.05,0,2,.2,4,.2,2.25,0,3.81-.13,8-.13,1.22,0,2.59-.13,3.33-.13s2.46,0,2.52,1.43c.21,4,1.37,7.43,1.37,8.67,0,.85-.14,1.24-1,1.24-.61,0-1.22-.78-2.11-2.15a19.08,19.08,0,0,0-4-4.57c-1.43-1-2.38-1.17-4.35-1.43-1.09-.13-.82-.13-2.52-.26-1.09-.07-1.57-.78-2.39-.78a22.84,22.84,0,0,0-2.52.52c-3.06,0-3.13,0-4.15,1.43-.48.59-.54,3.72-.54,4.83s-.62,1.1-.62,1.5a8.18,8.18,0,0,1,.41,2.6v4.18c0,.65.75,1,1.91,1.17,1,.13.48.39,1.29.39,1.23,0,2-.26,2.93-.26h2.93a6.66,6.66,0,0,0,3.13-.72,11.31,11.31,0,0,0,3.61-2.74c.48-.58.61-1.5,1.43-1.5.34,0,.68.33.68,1.24v.26c-.07,1.18-.34,3.92-.34,4.7s.61,3.84.68,5.28c0,.85-.54,1.24-.89,1.24-1,0-2-2.22-2.72-2.87a7.28,7.28,0,0,0-4.56-2.09c-1.7,0-1.5-.13-3.13-.13-.82,0-1.23.13-2.73.13-1.77,0-2.24-.13-3-.13-1.09,0-1.23.72-1.23,1.44,0,1.56-.27,6.65-.27,8.15,0,.52.34,1,.34,1.43,0,.91-.07,1.76-.07,2.48a3.68,3.68,0,0,0,.34,1.82c1,1.44,2.25,1.44,4.09,1.44,1,0,2.52-.33,3.67-.33s2.8-.39,3.61-.39a15.62,15.62,0,0,0,4.36-.85,12.57,12.57,0,0,0,4.5-2.34A17.15,17.15,0,0,0,544,39.38l.13-.19c.41-.72,1.09-1.83,1.43-1.83s.95.26.95.85c0,1-1.36,4.11-1.7,7.89-.2,2.48-.81,3.65-2.18,3.65C541.64,49.75,540.42,49.49,539.05,49.49Z" transform="translate(0 -0.2)"/><path class="cls-1" d="M585.91,29.54c-1.71,1-2.18.91-4.16,1.24,1,.33,2.86,2.28,3.61,2.67,1.57.72,2,2.15,3.47,3.65s1.71,3,2.45,4.18l.21.26a14,14,0,0,0,3.13,3.78,7.83,7.83,0,0,0,4.15,2c1,0,1.23.52,1.23,1.11,0,.84-2.45,1.17-4.83,1.17a29.31,29.31,0,0,1-5.11-.46c-1.64-.39-4.7-1.17-6-2.86a32.11,32.11,0,0,1-2.59-4.18c-.75-1.24-.48-2.28-1.09-2.47s-1-3.2-2.72-5.35a5,5,0,0,0-2.59-1.83c-.82-.13-3-.06-4.09-.13s-1.63.2-1.63,1.24c0,.33.07,1.24.07,2.48a19.59,19.59,0,0,1-.07,2c-.07.91-.14,2-.14,3,0,1.31.07,2.42.07,2.74a4.08,4.08,0,0,0,1.77,3.33c.82.39,2.11.19,2.11,1.3s-.95,1.24-2.11,1.24-2.31-.39-3.2-.39-2.31-.13-3.2-.13c-.48,0-1.57.26-2.18.26-.82,0-4.83.13-5.65.13-.54,0-1-.2-1-.85s.88-1,1.29-1c1.64,0,2.11-.78,2.86-2,.62-1,.62-3,.62-4.57,0-1-.14-1.3-.14-2.28a16.17,16.17,0,0,1,.14-2.28c0-.65-.14-1.56-.14-2,0-.65.07-1.3.07-2.22a12.72,12.72,0,0,0-.07-1.56c0-.59.41-1,.41-1.63s-.34-1.24-.34-2.09c0-.65.2-1.5.2-2.21a3.53,3.53,0,0,0-.13-.85c-.14-.59-.07-1-.28-2,0-.59.28-1.44.28-1.89,0-.65-.21-2.28-.21-2.87,0-2.67-.13-3.26-1-5-.48-1-1.16-1.63-3.2-1.63-.2,0-.48-.32-.48-.71a1.36,1.36,0,0,1,.21-.65c.2-.26,2.59-.26,3.61-.26h3.2c.4,0,5.24.19,5.44.19L571.4,9c.82,0,4.9-.13,7-.13,3.2.06,6.4.13,7.76.65a18.38,18.38,0,0,1,2.93,1.3c2.65,1.11,2.79,2.15,4.28,4.63a19.69,19.69,0,0,1,.89,4.82c0,2-.61,3.39-3.88,6.65C589,28.37,587.88,28.37,585.91,29.54Zm-1.09-10.3a9.64,9.64,0,0,0-1-4.17A4.38,4.38,0,0,0,581,12.2c-.61-.13-.88-1-3.4-1-.48,0-1.23-.13-1.91-.13s-1.29.26-2.18.26c-1.84,0-3.2.06-3.61,1.56l-.2.52a11.31,11.31,0,0,0-.2,3c0,.33.06,1.5.06,2V26c0,.59-.06,1.24-.06,1.83s.06,1.43.47,1.69c.14.13.34.13.68.13.82,0,1.64-.19,2.86-.26a21.92,21.92,0,0,0,3.61-.13c1.43-.26,3.2-1.89,4.84-3.39A10,10,0,0,0,584.82,19.24Z" transform="translate(0 -0.2)"/></svg>