<?xml version="1.0" standalone="no"?>
<!DOCTYPE svg PUBLIC "-//W3C//DTD SVG 20010904//EN"
 "http://www.w3.org/TR/2001/REC-SVG-20010904/DTD/svg10.dtd">
<svg version="1.0" xmlns="http://www.w3.org/2000/svg"
 width="1040.000000pt" height="1040.000000pt" viewBox="0 0 1040.000000 1040.000000"
 preserveAspectRatio="xMidYMid meet">
<metadata>
Created by potrace 1.11, written by Peter Selinger 2001-2013
</metadata>
<g transform="translate(0.000000,1040.000000) scale(0.100000,-0.100000)"
fill="#000000" stroke="none">
<path d="M2588 10048 c-8 -13 -27 -50 -43 -83 -17 -33 -33 -62 -36 -65 -3 -3
-12 -20 -20 -37 -8 -18 -17 -33 -21 -33 -5 0 -7 -3 -6 -7 1 -9 -13 -46 -21
-53 -3 -3 -27 -45 -53 -95 -86 -167 -93 -180 -101 -186 -5 -3 -8 -9 -8 -13 1
-10 -12 -41 -20 -46 -3 -3 -30 -52 -59 -110 -29 -58 -55 -107 -59 -110 -3 -3
-24 -41 -46 -85 -22 -44 -42 -82 -45 -85 -3 -3 -23 -41 -45 -85 -21 -44 -42
-82 -45 -85 -3 -3 -25 -45 -50 -95 -25 -49 -47 -92 -50 -95 -3 -3 -23 -39 -45
-80 -22 -41 -54 -102 -72 -135 -17 -33 -53 -100 -79 -150 -26 -49 -64 -121
-86 -160 -21 -38 -43 -82 -49 -97 -6 -16 -16 -28 -22 -28 -6 0 -7 -3 -4 -7 4
-3 0 -17 -9 -30 -8 -13 -35 -61 -58 -106 -24 -45 -57 -107 -73 -137 -17 -30
-54 -100 -83 -155 -111 -210 -145 -272 -174 -327 -17 -32 -55 -104 -85 -160
-30 -57 -75 -141 -100 -188 -26 -47 -58 -107 -71 -135 -14 -27 -27 -52 -30
-55 -3 -3 -20 -34 -39 -70 -18 -36 -51 -98 -72 -137 -21 -40 -57 -106 -78
-145 -21 -40 -53 -100 -71 -133 -17 -33 -36 -64 -41 -70 -5 -5 -9 -17 -9 -26
0 -10 -3 -19 -7 -21 -5 -1 -21 -29 -38 -61 -54 -106 -80 -153 -98 -180 -9 -15
-15 -27 -12 -27 3 0 -5 -17 -18 -37 -12 -21 -34 -60 -47 -88 -14 -27 -27 -52
-30 -55 -3 -3 -24 -42 -48 -88 -24 -45 -51 -97 -60 -115 -9 -18 -20 -34 -25
-35 -4 -2 -5 -7 -2 -12 3 -5 0 -14 -7 -22 -7 -7 -37 -59 -65 -114 l-53 -102
39 -71 c22 -39 36 -71 33 -71 -4 0 -2 -4 3 -8 6 -4 17 -20 25 -37 8 -16 17
-32 20 -35 3 -3 25 -45 50 -95 25 -49 48 -92 51 -95 3 -3 15 -25 28 -50 12
-25 51 -99 87 -165 35 -66 74 -140 87 -165 13 -25 43 -81 67 -125 24 -44 58
-109 77 -145 19 -36 39 -71 45 -77 6 -7 7 -13 2 -13 -5 0 -4 -4 1 -8 6 -4 26
-38 46 -77 63 -121 74 -140 82 -146 5 -3 8 -9 7 -13 0 -4 22 -49 49 -100 28
-51 51 -98 51 -104 0 -6 3 -12 8 -14 4 -1 25 -37 46 -78 21 -41 51 -97 66
-125 15 -27 51 -95 80 -150 29 -55 57 -105 61 -111 5 -6 6 -14 2 -17 -3 -4 -1
-7 5 -7 7 0 12 -6 12 -14 0 -8 3 -16 8 -18 4 -1 21 -30 37 -63 74 -146 179
-341 188 -346 5 -3 8 -9 8 -13 -1 -11 12 -41 36 -78 13 -21 23 -44 23 -52 0
-8 4 -16 9 -18 4 -1 34 -52 66 -113 31 -60 79 -150 106 -200 27 -49 63 -117
80 -150 17 -33 45 -87 63 -120 18 -33 47 -89 66 -125 19 -36 39 -72 46 -80 6
-8 15 -26 19 -40 4 -14 11 -27 14 -30 4 -3 21 -32 37 -65 47 -91 95 -179 106
-192 6 -7 7 -13 3 -13 -5 0 -1 -8 7 -17 9 -10 26 -42 39 -70 13 -29 27 -53 31
-53 5 0 8 -9 8 -20 0 -11 3 -20 8 -20 4 0 20 -27 35 -60 16 -33 33 -62 38 -65
5 -4 9 -15 9 -26 0 -10 4 -19 8 -19 4 0 15 -15 23 -32 15 -34 96 -187 141
-268 14 -25 55 -101 91 -170 37 -69 77 -145 91 -170 l24 -45 2602 0 2603 0 41
80 c22 44 44 82 47 85 3 3 17 29 30 57 13 29 27 53 31 53 5 0 8 9 8 20 0 11 4
20 9 20 5 0 11 10 15 23 3 13 17 40 31 61 14 20 25 43 25 51 0 8 5 15 11 15 5
0 7 5 4 10 -3 6 -2 10 3 10 5 0 17 20 28 45 10 25 22 45 27 45 4 0 6 4 3 9 -4
5 -3 11 1 13 5 1 23 32 42 68 18 36 54 106 80 155 25 50 48 92 51 95 3 3 24
41 45 85 22 44 42 82 46 85 5 5 15 23 83 155 19 39 39 75 43 81 5 5 28 50 53
100 25 49 47 91 50 94 3 3 16 28 30 55 14 28 27 52 30 55 3 3 18 32 35 65 16
33 55 106 86 162 32 57 54 103 51 103 -4 0 -2 4 3 8 6 4 21 27 33 52 94 180
159 301 183 342 16 26 25 48 21 48 -4 0 -2 4 3 8 6 4 24 34 40 67 17 33 32 62
35 65 3 3 15 25 27 50 13 25 36 69 53 98 17 28 28 52 25 52 -3 0 -1 6 5 13 12
13 50 82 102 187 18 36 35 67 38 70 5 5 43 76 114 215 23 44 43 82 46 85 3 3
16 25 29 50 29 56 110 209 166 315 24 44 56 105 72 135 15 30 34 61 41 68 7 8
10 18 7 23 -4 5 -1 9 4 9 6 0 11 9 11 20 0 11 4 20 9 20 5 0 13 10 17 23 4 12
9 24 13 27 3 3 22 37 42 75 67 132 104 200 114 207 6 4 6 8 1 8 -5 0 -4 6 1
13 10 11 37 62 133 242 23 44 47 86 52 93 6 6 7 12 2 12 -5 0 -4 4 1 8 6 4 18
23 27 42 10 19 33 63 52 98 31 56 34 66 23 90 -6 15 -14 29 -17 32 -13 11 -48
88 -43 94 4 3 2 6 -4 6 -6 0 -16 15 -24 33 -7 17 -15 34 -18 37 -4 3 -21 34
-40 70 -38 73 -87 166 -154 290 -25 47 -58 110 -74 140 -15 30 -30 57 -33 60
-3 3 -30 55 -60 115 -30 61 -57 112 -60 115 -3 3 -23 38 -44 79 -21 41 -46 88
-55 105 -9 17 -20 34 -26 38 -5 4 -6 8 -1 8 5 0 3 8 -5 18 -8 9 -26 41 -39 69
-14 29 -28 53 -32 53 -5 0 -8 9 -8 19 0 11 -3 21 -7 23 -5 2 -21 30 -38 63
-16 33 -32 62 -35 65 -3 3 -23 41 -45 85 -22 44 -42 82 -45 85 -3 3 -15 25
-28 50 -12 25 -51 99 -87 165 -36 66 -82 154 -102 195 -21 41 -40 77 -43 80
-5 5 -41 71 -94 175 -12 22 -23 42 -26 45 -3 3 -21 37 -40 75 -19 39 -60 116
-91 172 -31 56 -54 105 -51 108 3 3 0 5 -7 5 -7 0 -9 5 -6 10 3 6 2 10 -2 10
-5 0 -14 12 -20 28 -6 15 -30 61 -53 102 -23 41 -64 118 -91 170 -28 52 -54
99 -60 104 -5 6 -9 18 -9 28 0 10 -3 18 -8 18 -4 0 -15 17 -25 38 -10 20 -36
71 -58 112 -23 41 -61 113 -86 160 -24 47 -69 130 -98 185 -30 55 -65 120 -77
145 -13 25 -26 47 -29 50 -4 3 -10 16 -14 30 -4 14 -11 27 -14 30 -6 5 -38 63
-113 210 -18 36 -36 67 -40 68 -5 2 -8 10 -8 17 0 8 -7 21 -16 29 -8 9 -12 16
-8 16 3 0 2 6 -3 13 -6 6 -34 57 -63 112 -28 55 -56 104 -61 109 -5 6 -9 18
-9 28 0 10 -4 18 -10 18 -5 0 -12 11 -16 25 -3 14 -10 25 -15 25 -5 0 -8 3 -7
8 1 4 -7 23 -17 42 -11 19 -31 58 -45 85 l-26 50 -2601 3 -2601 2 -14 -22z"/>
</g>
</svg>
